<svg id="Logos_Color" data-name="Logos / Color" xmlns="http://www.w3.org/2000/svg" width="72" height="48" viewBox="0 0 72 48">
  <g id="Group_2" data-name="Group 2" transform="translate(5 5)">
    <path id="Path_1006" data-name="Path 1006" d="M55.137,103.758l.837-1a3.672,3.672,0,0,0,2.5,1.03c.862,0,1.405-.407,1.405-1v-.023c0-.565-.319-.871-1.789-1.21-1.687-.407-2.637-.9-2.637-2.364v-.023a2.422,2.422,0,0,1,2.7-2.3,4.4,4.4,0,0,1,2.876.995l-.747,1.053a3.6,3.6,0,0,0-2.15-.814c-.816,0-1.29.418-1.29.94v.021c0,.612.361.883,1.89,1.246,1.674.407,2.534,1.007,2.534,2.32v.023c0,1.481-1.166,2.364-2.83,2.364A4.883,4.883,0,0,1,55.137,103.758Zm8.579-6.767H69.59v1.244H65.107v2.06H69.08v1.244H65.107v2.129h4.539v1.244h-5.93Zm7.868,3.984v-.023a4.035,4.035,0,0,1,4.084-4.1,4.284,4.284,0,0,1,3.046,1.074l-.883,1.053a3.109,3.109,0,0,0-2.219-.848,2.678,2.678,0,0,0-2.568,2.794v.023a2.646,2.646,0,0,0,2.693,2.83,3.238,3.238,0,0,0,1.911-.6V101.7H75.625v-1.21H79v3.327a5.051,5.051,0,0,1-3.3,1.233A3.931,3.931,0,0,1,71.585,100.974Zm9.955.577V96.99h1.393v4.5c0,1.471.757,2.251,2,2.251s1.991-.734,1.991-2.194V96.99h1.393v4.491c0,2.366-1.336,3.554-3.407,3.554A3.123,3.123,0,0,1,81.539,101.551Zm9.586-4.561h3.531a3.2,3.2,0,0,1,2.286.791,2.394,2.394,0,0,1,.657,1.71v.023a2.38,2.38,0,0,1-1.879,2.4l2.14,3H96.206l-1.947-2.761H92.518v2.761H91.126Zm3.43,3.927c.995,0,1.63-.52,1.63-1.324V99.57c0-.849-.612-1.313-1.642-1.313H92.518v2.66Zm5.065.057v-.023a4.143,4.143,0,0,1,8.286-.023v.023a4.143,4.143,0,0,1-8.286.023Zm6.826,0v-.023a2.714,2.714,0,0,0-2.693-2.817,2.677,2.677,0,0,0-2.672,2.794v.023a2.705,2.705,0,0,0,2.693,2.807A2.669,2.669,0,0,0,106.446,100.974Zm3.253,2.784.839-1a3.665,3.665,0,0,0,2.5,1.03c.86,0,1.4-.407,1.4-1v-.023c0-.565-.317-.871-1.787-1.21-1.687-.407-2.639-.9-2.639-2.364v-.023a2.423,2.423,0,0,1,2.706-2.3,4.394,4.394,0,0,1,2.874.995l-.747,1.053a3.6,3.6,0,0,0-2.15-.814c-.814,0-1.29.418-1.29.94v.021c0,.612.363.883,1.89,1.246,1.676.407,2.534,1.007,2.534,2.32v.023c0,1.481-1.164,2.364-2.828,2.364A4.891,4.891,0,0,1,109.7,103.758Z" transform="translate(-55.137 -67.573)" fill="#8a8c8e"/>
    <path id="Path_1007" data-name="Path 1007" d="M70.513,104.309h8.914c9.7,0,14.572-5.04,14.572-12.138V92.1c0-7.1-4.766-11.8-14.3-11.8H70.513Zm8.022-6.571V86.879h1.338c3.669,0,6.035,1.635,6.035,5.392v.074c0,3.757-2.366,5.392-6.035,5.392Z" transform="translate(-43.302 -80.308)" fill="#007236"/>
    <path id="path34" d="M84.914,104.309h8v-24h-8Z" transform="translate(-32.218 -80.308)" fill="#007236"/>
    <path id="path34-2" data-name="path34" d="M59.661,92.828h8v-8h-8Z" transform="translate(-51.655 -76.828)" fill="#ed1c24"/>
    <path id="path34-3" data-name="path34" d="M55.137,104.309h8v-24h-8Z" transform="translate(-55.137 -80.308)" fill="#007236"/>
    <path id="path34-4" data-name="path34" d="M64.184,104.309h8v-24h-8Z" transform="translate(-48.174 -80.308)" fill="#007236"/>
  </g>
  <rect id="Rectangle_638" data-name="Rectangle 638" width="72" height="48" fill="none"/>
</svg>
