<svg id="logoAccretio" xmlns="http://www.w3.org/2000/svg" xmlns:xlink="http://www.w3.org/1999/xlink" width="88" height="56.591" viewBox="0 0 88 56.591">
  <defs>
    <clipPath id="clip-path">
      <rect id="Rectangle_1" data-name="Rectangle 1" width="88" height="56.591" fill="none"/>
    </clipPath>
  </defs>
  <g id="Group_3" data-name="Group 3" clip-path="url(#clip-path)">
    <path id="Path_9" data-name="Path 9" d="M256.484,139.86v-6.922c0-.4-.02-.361.311-.247.512.175,1.023.355,1.534.536.153.054.152.058.156.239,0,.061,0,.122,0,.182q0,6.558,0,13.116c0,.451.056.39-.354.393-.454,0-.907,0-1.361,0-.066,0-.132,0-.2,0a.086.086,0,0,1-.086-.1c0-.081,0-.162,0-.243q0-1.549,0-3.1Z" transform="translate(-196.388 -101.542)" fill="#83bc3a"/>
    <path id="Path_10" data-name="Path 10" d="M4.683,141.684H8.149l-1.71-5.736Zm.186-9.069h3.2l4.787,14.577H9.79l-.893-3H3.914l-.917,3H.039Z" transform="translate(-0.03 -101.542)" fill="#fff"/>
    <path id="Path_11" data-name="Path 11" d="M65.311,153.162a2.318,2.318,0,0,0-.377-1.01,1.583,1.583,0,0,0-1.371-.606,1.8,1.8,0,0,0-1.813,1.313,5.445,5.445,0,0,0-.258,1.85,5,5,0,0,0,.258,1.767,1.75,1.75,0,0,0,1.767,1.248,1.559,1.559,0,0,0,1.307-.5,2.465,2.465,0,0,0,.47-1.285h2.671A4.377,4.377,0,0,1,67.1,158.2a4.2,4.2,0,0,1-3.648,1.717,4.27,4.27,0,0,1-3.556-1.432,5.785,5.785,0,0,1-1.14-3.714,5.869,5.869,0,0,1,1.259-4.007,4.384,4.384,0,0,1,3.474-1.432,5.234,5.234,0,0,1,3.083.845,3.929,3.929,0,0,1,1.42,2.983Z" transform="translate(-44.989 -114.344)" fill="#fff"/>
    <path id="Path_12" data-name="Path 12" d="M109.937,153.162a2.319,2.319,0,0,0-.377-1.01,1.583,1.583,0,0,0-1.371-.606,1.8,1.8,0,0,0-1.813,1.313,5.447,5.447,0,0,0-.257,1.85,5.005,5.005,0,0,0,.257,1.767,1.75,1.75,0,0,0,1.767,1.248,1.559,1.559,0,0,0,1.306-.5,2.464,2.464,0,0,0,.47-1.285h2.671a4.377,4.377,0,0,1-.864,2.258,4.2,4.2,0,0,1-3.648,1.717,4.27,4.27,0,0,1-3.556-1.432,5.785,5.785,0,0,1-1.14-3.714,5.869,5.869,0,0,1,1.259-4.007,4.384,4.384,0,0,1,3.474-1.432,5.234,5.234,0,0,1,3.083.845,3.928,3.928,0,0,1,1.42,2.983Z" transform="translate(-79.159 -114.344)" fill="#fff"/>
    <path id="Path_13" data-name="Path 13" d="M155.64,151.338c.034,0,.108.008.225.014v2.68q-.248-.027-.441-.037c-.128-.006-.233-.009-.312-.009a2.17,2.17,0,0,0-2.121,1.028,4,4,0,0,0-.3,1.781v4.783h-2.635V151.572h2.5v1.744a5.536,5.536,0,0,1,1.056-1.368,2.873,2.873,0,0,1,1.909-.615c.049,0,.09,0,.124,0" transform="translate(-114.895 -115.875)" fill="#fff"/>
    <path id="Path_14" data-name="Path 14" d="M181.69,152a2.718,2.718,0,0,0-.7,1.549H185.5a2.182,2.182,0,0,0-.7-1.581,2.293,2.293,0,0,0-1.552-.54,2.075,2.075,0,0,0-1.562.572m3.914-2.26a4.072,4.072,0,0,1,1.729,1.48,4.922,4.922,0,0,1,.8,2.069,12.837,12.837,0,0,1,.086,1.986h-7.288a2.4,2.4,0,0,0,1.047,2.111,2.657,2.657,0,0,0,1.442.377,2.033,2.033,0,0,0,1.991-1.148h2.671a3.266,3.266,0,0,1-.97,1.808,4.862,4.862,0,0,1-3.765,1.46,5.454,5.454,0,0,1-3.524-1.231,4.851,4.851,0,0,1-1.527-4.006,5.417,5.417,0,0,1,1.378-3.987,4.824,4.824,0,0,1,3.578-1.388,5.7,5.7,0,0,1,2.353.469" transform="translate(-136.519 -114.299)" fill="#fff"/>
    <path id="Path_15" data-name="Path 15" d="M221.9,144.488v-1.864h1.4v-2.791h2.589v2.791h1.625v1.864h-1.625v5.288a1.19,1.19,0,0,0,.156.767,1.719,1.719,0,0,0,.955.151q.119,0,.252,0t.262-.014v1.955l-1.239.046a3.326,3.326,0,0,1-2.534-.643,1.913,1.913,0,0,1-.441-1.386v-6.16Z" transform="translate(-169.908 -107.069)" fill="#fff"/>
    <path id="Path_16" data-name="Path 16" d="M279.545,156.814a4.671,4.671,0,0,0,0-4.634,2.325,2.325,0,0,0-3.53,0,4.642,4.642,0,0,0,0,4.634,2.317,2.317,0,0,0,3.53,0m2.093,1.446a5.513,5.513,0,0,1-7.693,0,6.209,6.209,0,0,1,0-7.517,5.456,5.456,0,0,1,7.693,0,6.209,6.209,0,0,1,0,7.517" transform="translate(-208.788 -114.209)" fill="#fff"/>
    <path id="Path_17" data-name="Path 17" d="M1.253,213.7a1,1,0,0,0,.17.529,1.066,1.066,0,0,0,.854.279,1.182,1.182,0,0,0,.582-.122.4.4,0,0,0,.215-.367.409.409,0,0,0-.174-.357,6.489,6.489,0,0,0-1.292-.421,2.548,2.548,0,0,1-1.135-.563,1.306,1.306,0,0,1-.329-.959,1.762,1.762,0,0,1,.515-1.27,1.923,1.923,0,0,1,1.448-.531,2.426,2.426,0,0,1,1.445.4,1.775,1.775,0,0,1,.641,1.378H2.956a.89.89,0,0,0-.135-.426.8.8,0,0,0-.7-.284.911.911,0,0,0-.576.142.422.422,0,0,0-.172.333.373.373,0,0,0,.183.348,7.263,7.263,0,0,0,1.29.387,2.265,2.265,0,0,1,1.107.593,1.436,1.436,0,0,1,.364,1,1.714,1.714,0,0,1-.524,1.295,2.266,2.266,0,0,1-1.618.5,2.248,2.248,0,0,1-1.648-.531A1.83,1.83,0,0,1,0,213.7Z" transform="translate(0 -160.734)" fill="#83bc3a"/>
    <path id="Path_18" data-name="Path 18" d="M22.341,211.415a1.543,1.543,0,0,0-.329.826H24.14a1.235,1.235,0,0,0-.329-.843,1.01,1.01,0,0,0-.733-.288.919.919,0,0,0-.737.3m1.848-1.205A2.006,2.006,0,0,1,25,211a2.828,2.828,0,0,1,.377,1.1,7.724,7.724,0,0,1,.041,1.059H21.981a1.338,1.338,0,0,0,.494,1.126,1.147,1.147,0,0,0,.681.2.968.968,0,0,0,.686-.245,1.162,1.162,0,0,0,.254-.367h1.262a1.829,1.829,0,0,1-.458.964,2.166,2.166,0,0,1-1.777.778,2.4,2.4,0,0,1-1.664-.657,2.767,2.767,0,0,1-.721-2.136,3.121,3.121,0,0,1,.651-2.126,2.145,2.145,0,0,1,1.69-.74,2.428,2.428,0,0,1,1.111.25" transform="translate(-15.878 -160.765)" fill="#83bc3a"/>
    <path id="Path_19" data-name="Path 19" d="M45.206,213.829a1.763,1.763,0,0,0,.3-1.137,1.86,1.86,0,0,0-.283-1.116.936.936,0,0,0-1.651.284,2.57,2.57,0,0,0-.13.875,2.161,2.161,0,0,0,.138.8.9.9,0,0,0,.9.652.917.917,0,0,0,.729-.357m-.421-3.694a1.544,1.544,0,0,1,.727.747v-.742h1.2v4.887a2.94,2.94,0,0,1-.308,1.5,2.181,2.181,0,0,1-2.028.87,2.582,2.582,0,0,1-1.478-.388,1.453,1.453,0,0,1-.633-1.158h1.344a.626.626,0,0,0,.169.34.981.981,0,0,0,.672.184.885.885,0,0,0,.893-.486,2.669,2.669,0,0,0,.147-1.049v-.331a1.617,1.617,0,0,1-.381.5,1.446,1.446,0,0,1-.958.307,1.751,1.751,0,0,1-1.454-.7,2.993,2.993,0,0,1-.544-1.888,3.393,3.393,0,0,1,.524-1.931,1.684,1.684,0,0,1,1.485-.782,1.505,1.505,0,0,1,.619.118" transform="translate(-32.28 -160.809)" fill="#83bc3a"/>
    <path id="Path_20" data-name="Path 20" d="M67.658,210.566v3.217a1.89,1.89,0,0,0,.095.685.646.646,0,0,0,.66.407.857.857,0,0,0,.862-.578,2.346,2.346,0,0,0,.121-.827v-2.9h1.253V215.9h-1.2v-.754q-.017.024-.086.147a.962.962,0,0,1-.164.215,1.48,1.48,0,0,1-1.193.509,1.386,1.386,0,0,1-1.409-.852,3.646,3.646,0,0,1-.2-1.385v-3.217Z" transform="translate(-50.836 -161.229)" fill="#83bc3a"/>
    <path id="Path_21" data-name="Path 21" d="M92.264,210.025l.106.007v1.43c-.078-.01-.147-.016-.208-.019s-.11,0-.148,0a1,1,0,0,0-1,.548,2.384,2.384,0,0,0-.143.95v2.55H89.627V210.15h1.179v.93a2.924,2.924,0,0,1,.5-.729,1.258,1.258,0,0,1,.9-.328c.023,0,.043,0,.059,0" transform="translate(-68.627 -160.813)" fill="#83bc3a"/>
    <path id="Path_22" data-name="Path 22" d="M106.428,213.918a2.772,2.772,0,0,0,0-2.471,1.019,1.019,0,0,0-1.666,0,2.754,2.754,0,0,0,0,2.471,1.015,1.015,0,0,0,1.666,0m.988.771a2.394,2.394,0,0,1-3.632,0,3.656,3.656,0,0,1,0-4.008,2.372,2.372,0,0,1,3.632,0,3.656,3.656,0,0,1,0,4.008" transform="translate(-79.009 -160.669)" fill="#83bc3a"/>
    <path id="Path_23" data-name="Path 23" d="M127.563,213.7a1,1,0,0,0,.17.529,1.066,1.066,0,0,0,.854.279,1.182,1.182,0,0,0,.582-.122.4.4,0,0,0,.215-.367.409.409,0,0,0-.174-.357,6.488,6.488,0,0,0-1.292-.421,2.547,2.547,0,0,1-1.135-.563,1.306,1.306,0,0,1-.329-.959,1.762,1.762,0,0,1,.515-1.27,1.923,1.923,0,0,1,1.448-.531,2.426,2.426,0,0,1,1.445.4,1.775,1.775,0,0,1,.641,1.378h-1.235a.89.89,0,0,0-.135-.426.8.8,0,0,0-.7-.284.911.911,0,0,0-.576.142.422.422,0,0,0-.172.333.373.373,0,0,0,.183.348,7.276,7.276,0,0,0,1.29.387,2.265,2.265,0,0,1,1.107.593,1.436,1.436,0,0,1,.364,1,1.714,1.714,0,0,1-.523,1.295,2.839,2.839,0,0,1-3.266-.03,1.83,1.83,0,0,1-.532-1.353Z" transform="translate(-96.715 -160.734)" fill="#83bc3a"/>
    <path id="Path_24" data-name="Path 24" d="M159.261,214.023v-1.3h1.777v-2.041h1.14v2.041h1.777v1.3h-1.777v2.051h-1.14v-2.051Z" transform="translate(-121.945 -161.318)" fill="#fff"/>
    <path id="Path_25" data-name="Path 25" d="M192.183,202.5l.26.022v1.139q-.1-.015-.349-.022a.374.374,0,0,0-.338.123.482.482,0,0,0-.093.287v.452h.811v.987h-.811V209.8h-1.227v-4.315h-.694V204.5h.676v-.344a1.993,1.993,0,0,1,.256-1.183q.269-.482,1.3-.481.117,0,.213.007" transform="translate(-145.285 -155.048)" fill="#83bc3a"/>
    <path id="Path_26" data-name="Path 26" d="M204.5,204.547h1.253V209.9H204.5Zm1.252-.638H204.5v-1.292h1.253Z" transform="translate(-156.587 -155.142)" fill="#83bc3a"/>
    <path id="Path_27" data-name="Path 27" d="M216.534,213.185a1.333,1.333,0,0,1-.239.135,1.842,1.842,0,0,1-.332.1l-.281.059a1.7,1.7,0,0,0-.568.192.788.788,0,0,0-.114,1.112.627.627,0,0,0,.433.16,1.073,1.073,0,0,0,1.1-1.232Zm-.755-.653a1.755,1.755,0,0,0,.493-.123.418.418,0,0,0,.266-.4.489.489,0,0,0-.2-.454,1.161,1.161,0,0,0-.6-.125.737.737,0,0,0-.628.245,1.087,1.087,0,0,0-.176.491h-1.192a2.225,2.225,0,0,1,.348-1.154,1.911,1.911,0,0,1,1.689-.707,2.722,2.722,0,0,1,1.384.349,1.386,1.386,0,0,1,.6,1.316v2.455c0,.17,0,.377.009.619a.864.864,0,0,0,.074.373.456.456,0,0,0,.182.162v.206h-1.344a1.729,1.729,0,0,1-.078-.3c-.015-.1-.026-.2-.035-.324a2.643,2.643,0,0,1-.593.535,1.632,1.632,0,0,1-.907.26,1.456,1.456,0,0,1-1.066-.414,1.85,1.85,0,0,1,.256-2.6,2.767,2.767,0,0,1,1.092-.344Z" transform="translate(-163.542 -161.031)" fill="#83bc3a"/>
    <path id="Path_28" data-name="Path 28" d="M239.865,210.743a1.906,1.906,0,0,1,.463,1.441v3.6h-1.265v-3.255a1.669,1.669,0,0,0-.1-.648.682.682,0,0,0-.688-.413.853.853,0,0,0-.856.6,2.335,2.335,0,0,0-.121.815v2.9h-1.235v-5.342h1.2v.781a2.318,2.318,0,0,1,.449-.594,1.431,1.431,0,0,1,.963-.324,1.678,1.678,0,0,1,1.194.434" transform="translate(-180.752 -161.032)" fill="#83bc3a"/>
    <path id="Path_29" data-name="Path 29" d="M257.484,211.992v-1.139h3.736v1.164l-2.318,3.039h2.4V216.2h-3.983v-1.09l2.342-3.123Z" transform="translate(-197.028 -161.449)" fill="#83bc3a"/>
    <path id="Path_30" data-name="Path 30" d="M279.69,213.185a1.325,1.325,0,0,1-.239.135,1.843,1.843,0,0,1-.332.1l-.281.059a1.707,1.707,0,0,0-.568.192.788.788,0,0,0-.113,1.112.627.627,0,0,0,.433.16,1.073,1.073,0,0,0,1.1-1.232Zm-.755-.653a1.754,1.754,0,0,0,.493-.123.418.418,0,0,0,.266-.4.489.489,0,0,0-.2-.454,1.161,1.161,0,0,0-.6-.125.737.737,0,0,0-.628.245,1.09,1.09,0,0,0-.176.491h-1.192a2.229,2.229,0,0,1,.348-1.154,1.912,1.912,0,0,1,1.689-.707,2.724,2.724,0,0,1,1.384.349,1.386,1.386,0,0,1,.6,1.316v2.455c0,.17,0,.377.009.619a.861.861,0,0,0,.074.373.456.456,0,0,0,.182.162v.206h-1.343a1.711,1.711,0,0,1-.078-.3c-.015-.1-.026-.2-.035-.324a2.647,2.647,0,0,1-.593.535,1.632,1.632,0,0,1-.907.26,1.455,1.455,0,0,1-1.066-.414,1.85,1.85,0,0,1,.256-2.6,2.762,2.762,0,0,1,1.092-.344Z" transform="translate(-211.9 -161.031)" fill="#83bc3a"/>
    <path id="Path_31" data-name="Path 31" d="M299.176,214a1.012,1.012,0,0,0,.17.53,1.064,1.064,0,0,0,.854.28,1.178,1.178,0,0,0,.581-.122.4.4,0,0,0,.216-.369.411.411,0,0,0-.174-.358,6.476,6.476,0,0,0-1.292-.422,2.547,2.547,0,0,1-1.135-.565,1.312,1.312,0,0,1-.329-.962,1.77,1.77,0,0,1,.515-1.274,1.92,1.92,0,0,1,1.448-.533,2.423,2.423,0,0,1,1.445.4,1.783,1.783,0,0,1,.641,1.382h-1.235a.9.9,0,0,0-.135-.427.8.8,0,0,0-.7-.285.907.907,0,0,0-.575.142.423.423,0,0,0-.172.334.374.374,0,0,0,.183.349,7.183,7.183,0,0,0,1.29.388,2.262,2.262,0,0,1,1.107.594,1.443,1.443,0,0,1,.364,1.006,1.721,1.721,0,0,1-.523,1.3,2.833,2.833,0,0,1-3.266-.03,1.839,1.839,0,0,1-.532-1.358Z" transform="translate(-228.118 -160.951)" fill="#83bc3a"/>
    <path id="Path_32" data-name="Path 32" d="M228.587,116.767l-.6,0c-1.123.006-2.247,0-3.37,0-.879,0-1.758,0-2.637,0l0,1.874q1.314,0,2.629,0c1.127,0,2.255,0,3.383,0l.547,0a2.629,2.629,0,0,1,.04-1.875" transform="translate(-169.971 -89.408)" fill="#83bc3a"/>
    <path id="Path_33" data-name="Path 33" d="M285.136,46.061h.015c-.106-.42-.213-.84-.312-1.262q-.607-2.587-1.012-5.219-.294-1.91-.458-3.836a31.665,31.665,0,0,1-.086-3.716,14.537,14.537,0,0,1,.29-2.494,7.087,7.087,0,0,1,.657-1.9A3,3,0,0,1,286.441,26a7.311,7.311,0,0,1,2.011-.041c.869.083,1.728.251,2.592.383a16.275,16.275,0,0,0,1.687.2c.082,0,.165.008.248.006a.164.164,0,0,0,.144-.092c.164-.291.075-.463-.127-.558-.086-.041-.175-.075-.262-.114s-.175-.075-.259-.12a.728.728,0,0,1-.388-.772c.006-.06.064-.125-.009-.188a.693.693,0,0,0-.079.077,1.6,1.6,0,0,1-.957.6,3.741,3.741,0,0,1-1.3.073c-.633-.076-1.264-.166-1.9-.241-.316-.037-.634-.065-.952-.077a5.609,5.609,0,0,0-.595.038.212.212,0,0,1,.072-.17c.13-.162.259-.325.392-.485.671-.809,1.4-1.558,2.122-2.316a33.076,33.076,0,0,0,2.3-2.6c.1-.126.19-.255.284-.384a.077.077,0,0,0,0-.1.087.087,0,0,0-.066-.016,1.206,1.206,0,0,0-.639.3c-.1.083-.2.176-.308.252a.226.226,0,0,1-.345-.051,1.327,1.327,0,0,1-.12-.185c-.042-.075-.076-.156-.117-.232a.108.108,0,0,0-.2,0,.371.371,0,0,0-.046.251,1.258,1.258,0,0,0,.188.482c.054.094.153.156.176.324a2.162,2.162,0,0,0-.176.146c-.36.361-.724.718-1.075,1.089q-1.806,1.908-3.6,3.825c-.8.85-1.613,1.689-2.45,2.5-.078.076-.158.151-.239.222-.054.047-.116.017-.123-.06-.01-.112-.018-.225-.02-.337q-.012-.676-.019-1.352c-.026-2.279.008-4.559-.057-6.838a45.524,45.524,0,0,0-.375-4.864c-.043-.312-.1-.623-.157-.967a1.124,1.124,0,0,0-.121.43,13.782,13.782,0,0,0-.144,1.908c-.01,1.14,0,2.28.044,3.419a26.1,26.1,0,0,1-.047,2.966c-.029.373-.094.744-.147,1.115-.017.114-.084.143-.177.078-.3-.206-.592-.411-.883-.625a7.627,7.627,0,0,0-2.294-1.146c-.192-.06-.385-.116-.578-.175-.079-.024-.158-.051-.238-.071a.15.15,0,0,1-.124-.156c0-.088,0-.175,0-.263,0-.276,0-.551,0-.827a.4.4,0,0,0-.074-.281.088.088,0,0,0-.126-.018.5.5,0,0,0-.161.241c-.079.2-.15.394-.228.59-.043.109-.089.12-.189.049a3.9,3.9,0,0,1-.785-.753,6.592,6.592,0,0,1-.849-1.424,15.736,15.736,0,0,1-.648-1.745,1.713,1.713,0,0,0-.163-.449c-.073-.008-.112.039-.144.091a.7.7,0,0,0-.089.5,3.448,3.448,0,0,0,.108.435c.074.238.163.47.236.708a1.941,1.941,0,0,1,.086.4.353.353,0,0,1-.3.433c-.08.021-.163.027-.244.044a.1.1,0,0,0-.058.146.213.213,0,0,0,.125.123.512.512,0,0,0,.279.02c.129-.017.257-.036.386-.052a.27.27,0,0,1,.328.2,4.594,4.594,0,0,0,2.021,2.33,12.05,12.05,0,0,0,1.244.631c.5.226,1,.445,1.494.682a5,5,0,0,1,1.142.746,3.466,3.466,0,0,1,1.061,1.695,5.326,5.326,0,0,1,.195,1.445,11.782,11.782,0,0,1-.371,2.856c0,.019-.033.032-.055.051a1.237,1.237,0,0,1-.351-.241c-.339-.272-.657-.571-.97-.875-.3-.287-.59-.577-.891-.859a6.871,6.871,0,0,0-1.02-.806,3.856,3.856,0,0,0-2.684-.585c-.175.025-.349.058-.524.085a.423.423,0,0,1-.533-.311c-.047-.114-.078-.236-.12-.353a.7.7,0,0,0-.184-.315c-.047-.04-.1-.077-.159-.042s-.026.086-.022.132a.816.816,0,0,1-.479.94,4.1,4.1,0,0,1-.423.189c-.187.076-.377.144-.564.218a2.122,2.122,0,0,0-.5.276,1.121,1.121,0,0,0-.382.482.074.074,0,0,0,.065.1c.047,0,.094-.006.141-.01a4.53,4.53,0,0,0,1.132-.283c.358-.125.716-.253,1.078-.364a2.771,2.771,0,0,1,1.015-.121.1.1,0,0,1,.1.151c-.031.081-.073.157-.1.238a.608.608,0,0,0,0,.473c.055.13.169.156.248.045a3.849,3.849,0,0,0,.209-.347c.078-.14.15-.284.23-.422a.239.239,0,0,1,.271-.13c.127.024.256.045.383.069A4.581,4.581,0,0,1,279,28.98c.221.277.433.562.647.845.332.439.655.887,1,1.316a1.035,1.035,0,0,1,.223.536c.067.508.128,1.017.168,1.529a23.32,23.32,0,0,1-.049,3.827c-.07.809-.4,1.834-.561,2.674a12.677,12.677,0,0,0-6.823-1.936l-2.334,0a2.63,2.63,0,0,1,.042,1.874l2.292,0c4.823,0,8.848,2.957,9.789,7.19a35.364,35.364,0,0,1,.506,8.026q-.008.6-.013,1.2l1.874.014q0-.592.013-1.188a36.739,36.739,0,0,0-.551-8.456c-.027-.124-.059-.246-.091-.369" transform="translate(-207.713 -10.413)" fill="#83bc3a"/>
    <path id="Path_34" data-name="Path 34" d="M362.027,60.279a.43.43,0,0,0-.12.078.3.3,0,0,0-.09.335.742.742,0,0,0,.107.191,1.258,1.258,0,0,0,1.634.264c.075-.051.121-.15.223-.156v-.15c-.085.011-.117-.07-.167-.114-.118-.1-.224-.222-.346-.317a1.205,1.205,0,0,0-1.24-.131" transform="translate(-277.026 -46.07)" fill="#83bc3a"/>
    <path id="Path_35" data-name="Path 35" d="M307.039,13.425a.8.8,0,0,0,.375.2.443.443,0,0,0,.545-.3,1.058,1.058,0,0,0,.067-.25,1.777,1.777,0,0,0-.218-1.187,4.3,4.3,0,0,0-.833-1.011c-.015-.014-.043-.01-.079-.017a1.919,1.919,0,0,1-.067.431c-.064.133-.116.273-.183.4a1.207,1.207,0,0,0-.12.689,1.617,1.617,0,0,0,.514,1.035" transform="translate(-234.698 -8.319)" fill="#83bc3a"/>
    <path id="Path_36" data-name="Path 36" d="M294.693,76.76a.565.565,0,0,0-.172-.011.972.972,0,0,0-.7.391,3.261,3.261,0,0,0-.466.861.2.2,0,0,0,.006.067c.1,0,.187-.052.286-.022s.2.046.293.077a.63.63,0,0,0,.459-.025,1.037,1.037,0,0,0,.548-.6.77.77,0,0,0,.049-.341.388.388,0,0,0-.3-.392" transform="translate(-224.615 -58.765)" fill="#83bc3a"/>
    <path id="Path_37" data-name="Path 37" d="M264.667,59.137a1.179,1.179,0,0,0,.269.64,1.466,1.466,0,0,0,.976.544.771.771,0,0,0,.415-.061.481.481,0,0,0,.291-.571,1.044,1.044,0,0,0-.078-.247,1.642,1.642,0,0,0-.813-.846,3.928,3.928,0,0,0-1.227-.331c-.019,0-.041.018-.074.034.048.136.156.244.175.4s.05.295.066.443" transform="translate(-202.47 -44.613)" fill="#83bc3a"/>
    <path id="Path_38" data-name="Path 38" d="M350.486,20.3a.8.8,0,0,0,.375.2.443.443,0,0,0,.545-.3,1.059,1.059,0,0,0,.067-.25,1.778,1.778,0,0,0-.218-1.187,4.3,4.3,0,0,0-.833-1.011c-.015-.013-.043-.01-.079-.017a1.931,1.931,0,0,1-.067.431c-.064.133-.116.273-.183.4a1.207,1.207,0,0,0-.12.689,1.618,1.618,0,0,0,.514,1.035" transform="translate(-267.965 -13.582)" fill="#83bc3a"/>
    <path id="Path_39" data-name="Path 39" d="M284.487,49.229a.915.915,0,0,0-.243-.037,1.536,1.536,0,0,0-1.078.392,4.309,4.309,0,0,0-.829,1.014c-.011.017,0,.047,0,.086.136.015.276-.039.412.012s.27.086.4.137a1.022,1.022,0,0,0,.659.032,1.5,1.5,0,0,0,.9-.682.9.9,0,0,0,.135-.421.474.474,0,0,0-.35-.532" transform="translate(-216.179 -37.666)" fill="#83bc3a"/>
    <path id="Path_40" data-name="Path 40" d="M281.143,80.962c.129-.05.231-.164.374-.183s.278-.051.418-.066a1.051,1.051,0,0,0,.6-.281,1.614,1.614,0,0,0,.519-1.032.914.914,0,0,0-.054-.441.444.444,0,0,0-.536-.313.911.911,0,0,0-.233.081,1.647,1.647,0,0,0-.8.857,4.59,4.59,0,0,0-.321,1.3c0,.021.017.044.031.079" transform="translate(-215.245 -60.21)" fill="#83bc3a"/>
    <path id="Path_41" data-name="Path 41" d="M351.01,74.609a1.064,1.064,0,0,0-.22-.107.361.361,0,0,0-.5.2.731.731,0,0,0-.048.387,1.728,1.728,0,0,0,.5,1,1.238,1.238,0,0,0,.573.341c.132.035.263.084.4.121a1.971,1.971,0,0,1,.354.219c.014-.03.031-.047.029-.066a4.452,4.452,0,0,0-.314-1.212,1.918,1.918,0,0,0-.765-.887" transform="translate(-268.17 -57.021)" fill="#83bc3a"/>
    <path id="Path_42" data-name="Path 42" d="M327.086,54.156c-.021,0-.038,0-.048.009a2.947,2.947,0,0,0-.535.678,1.447,1.447,0,0,0-.177.825.851.851,0,0,0,.03.179c.052.179.161.258.311.228a.451.451,0,0,0,.23-.126,1.216,1.216,0,0,0,.347-.708.993.993,0,0,0-.043-.489c-.034-.1-.059-.2-.092-.291a1.6,1.6,0,0,1-.022-.306" transform="translate(-249.863 -41.467)" fill="#83bc3a"/>
    <path id="Path_43" data-name="Path 43" d="M350.591,54.261a1.066,1.066,0,0,0,.577-.34,3.227,3.227,0,0,0,.8-1.6.448.448,0,0,0,.02-.291c-.023,0-.051-.012-.066,0a1.933,1.933,0,0,1-.769.25,3,3,0,0,0-.413.1.822.822,0,0,0-.438.3,1.654,1.654,0,0,0-.335,1.078.485.485,0,0,0,.625.507" transform="translate(-267.964 -39.837)" fill="#83bc3a"/>
    <path id="Path_44" data-name="Path 44" d="M339.574,32.7a1.063,1.063,0,0,0,.576-.34,3.224,3.224,0,0,0,.8-1.6.448.448,0,0,0,.02-.291c-.023,0-.051-.012-.066,0a1.933,1.933,0,0,1-.769.25,3.012,3.012,0,0,0-.413.1.822.822,0,0,0-.438.3,1.653,1.653,0,0,0-.335,1.078.485.485,0,0,0,.625.507" transform="translate(-259.529 -23.327)" fill="#83bc3a"/>
    <path id="Path_45" data-name="Path 45" d="M349.3,29.114c-.084-.184-.135-.31-.2-.429a1.14,1.14,0,0,0-1.1-.675c-.1,0-.135.052-.094.138a2.879,2.879,0,0,0,1.1,1.382c.042.024.091.05.1.1.008.1.041.132.131.087a5.317,5.317,0,0,0,.92-.552,2.044,2.044,0,0,0,.605-.722,1.405,1.405,0,0,0,.165-.625,1.431,1.431,0,0,0-.178.071c-.249.142-.5.283-.742.434a2.415,2.415,0,0,0-.282.224,2.594,2.594,0,0,0-.422.564" transform="translate(-266.383 -21.302)" fill="#83bc3a"/>
    <path id="Path_46" data-name="Path 46" d="M354.547,44.189a2.837,2.837,0,0,0-1.443-.215,1.292,1.292,0,0,0-.5.167,1.018,1.018,0,0,0-.385.375.126.126,0,0,0,.035.19,1.438,1.438,0,0,0,.651.27,1.574,1.574,0,0,0,1.511-.519.368.368,0,0,0,.133-.269" transform="translate(-269.669 -33.656)" fill="#83bc3a"/>
    <path id="Path_47" data-name="Path 47" d="M333.336,48.215a1.07,1.07,0,0,0,.271.474.111.111,0,0,0,.183,0,1.59,1.59,0,0,0,.378-.625,1.821,1.821,0,0,0-.182-1.675.347.347,0,0,0-.223-.191,3.313,3.313,0,0,0-.483,1.46,1.519,1.519,0,0,0,.056.555" transform="translate(-255.187 -35.374)" fill="#83bc3a"/>
    <path id="Path_48" data-name="Path 48" d="M340.221,56.371a1.349,1.349,0,0,0-.435.314,1.073,1.073,0,0,0-.266.477.124.124,0,0,0,.085.172,1.4,1.4,0,0,0,.7.06,1.636,1.636,0,0,0,1.306-.959.38.38,0,0,0,.054-.3,2.84,2.84,0,0,0-1.441.236" transform="translate(-259.961 -42.973)" fill="#83bc3a"/>
    <path id="Path_49" data-name="Path 49" d="M273.514,82.265a2.982,2.982,0,0,0,1.228-.833,1.445,1.445,0,0,0,.279-.474,1.115,1.115,0,0,0,.063-.551c-.014-.094-.055-.127-.143-.121a1.427,1.427,0,0,0-.661.245,1.746,1.746,0,0,0-.83,1.437.38.38,0,0,0,.064.3" transform="translate(-209.376 -61.475)" fill="#83bc3a"/>
    <path id="Path_50" data-name="Path 50" d="M292.091,30.195a1.5,1.5,0,0,0-.123.543,1.107,1.107,0,0,0,.105.543c.041.084.09.1.172.066a1.5,1.5,0,0,0,.553-.454,1.81,1.81,0,0,0,.358-1.642.367.367,0,0,0-.149-.259,3.147,3.147,0,0,0-.916,1.2" transform="translate(-223.557 -22.198)" fill="#83bc3a"/>
    <path id="Path_51" data-name="Path 51" d="M275.934,59.826a.462.462,0,0,0,.392-.379,1.422,1.422,0,0,0,.038-.369,4.045,4.045,0,0,0-.416-1.683c-.01-.021-.034-.034-.074-.071a8.173,8.173,0,0,0-.469,1.233,1.9,1.9,0,0,0-.047.593.859.859,0,0,0,.16.448.439.439,0,0,0,.417.229" transform="translate(-210.836 -43.893)" fill="#83bc3a"/>
    <path id="Path_52" data-name="Path 52" d="M318.957,14.233a.88.88,0,0,0-.035.478.471.471,0,0,0,.285.4.435.435,0,0,0,.506-.165,1.349,1.349,0,0,0,.183-.317,4.061,4.061,0,0,0,.3-1.71.4.4,0,0,0-.038-.1,7.621,7.621,0,0,0-.919.9,1.821,1.821,0,0,0-.281.515" transform="translate(-244.183 -9.813)" fill="#83bc3a"/>
    <path id="Path_53" data-name="Path 53" d="M318.922,32.961a.469.469,0,0,0,.285.4.435.435,0,0,0,.507-.165,1.361,1.361,0,0,0,.183-.317,4.068,4.068,0,0,0,.3-1.71.409.409,0,0,0-.038-.1,7.608,7.608,0,0,0-.92.9,1.812,1.812,0,0,0-.281.514.875.875,0,0,0-.035.478" transform="translate(-244.183 -23.787)" fill="#83bc3a"/>
    <path id="Path_54" data-name="Path 54" d="M324.176,16.371a.471.471,0,0,0,.285.4.436.436,0,0,0,.507-.166,1.352,1.352,0,0,0,.182-.317,4.064,4.064,0,0,0,.3-1.71.418.418,0,0,0-.038-.1,7.625,7.625,0,0,0-.92.9,1.812,1.812,0,0,0-.281.515.875.875,0,0,0-.035.478" transform="translate(-248.206 -11.084)" fill="#83bc3a"/>
    <path id="Path_55" data-name="Path 55" d="M300.6,12.738a.649.649,0,0,0,.295.239.35.35,0,0,0,.385-.033.408.408,0,0,0,.118-.445,1.117,1.117,0,0,0-.125-.276,3.067,3.067,0,0,0-.98-.982.292.292,0,0,0-.081-.016,6.875,6.875,0,0,0,.178,1.077,1.5,1.5,0,0,0,.21.436" transform="translate(-229.873 -8.595)" fill="#83bc3a"/>
    <path id="Path_56" data-name="Path 56" d="M314.3,2.291a.435.435,0,0,0,.506-.165,1.35,1.35,0,0,0,.183-.317,4.061,4.061,0,0,0,.3-1.71.405.405,0,0,0-.038-.1,7.621,7.621,0,0,0-.919.9,1.822,1.822,0,0,0-.281.515.877.877,0,0,0-.035.478.47.47,0,0,0,.285.4" transform="translate(-240.425)" fill="#83bc3a"/>
    <path id="Path_57" data-name="Path 57" d="M309.7,33.119a1.136,1.136,0,0,1-.2.416.893.893,0,0,0-.16.564,1.855,1.855,0,0,0,.183.794,1.126,1.126,0,0,0,.16.245.288.288,0,0,0,.5-.036,1.108,1.108,0,0,0,.113-.232,1.765,1.765,0,0,0,.089-.775,1.231,1.231,0,0,0-.693-.977" transform="translate(-236.865 -25.359)" fill="#83bc3a"/>
    <path id="Path_58" data-name="Path 58" d="M320.4,52.07a1.017,1.017,0,0,1-.4.2.808.808,0,0,0-.455.336,1.819,1.819,0,0,0-.321.743,1.186,1.186,0,0,0-.018.3c.021.261.183.378.416.305a.994.994,0,0,0,.224-.107,1.622,1.622,0,0,0,.523-.548,1.3,1.3,0,0,0,.029-1.223" transform="translate(-244.41 -39.87)" fill="#83bc3a"/>
    <path id="Path_59" data-name="Path 59" d="M327.207,77.821a.871.871,0,0,0-.264-.517,1.649,1.649,0,0,0-.66-.422,1,1,0,0,0-.277-.052c-.246-.007-.374.152-.332.406a1.118,1.118,0,0,0,.075.248,1.653,1.653,0,0,0,.455.613,1.109,1.109,0,0,0,1.141.166,1.156,1.156,0,0,1-.139-.442" transform="translate(-249.361 -58.828)" fill="#83bc3a"/>
    <path id="Path_60" data-name="Path 60" d="M281.492,45.2a1.218,1.218,0,0,0-1.824.584,2.913,2.913,0,0,1,.374.184.993.993,0,0,0,.782.137,1.182,1.182,0,0,0,.742-.4.321.321,0,0,0-.075-.507" transform="translate(-214.14 -34.443)" fill="#83bc3a"/>
    <path id="Path_61" data-name="Path 61" d="M306.383,62.939a1.218,1.218,0,0,0-1.824.584,2.912,2.912,0,0,1,.374.184.993.993,0,0,0,.782.137,1.182,1.182,0,0,0,.742-.4.321.321,0,0,0-.075-.507" transform="translate(-233.199 -48.027)" fill="#83bc3a"/>
    <path id="Path_62" data-name="Path 62" d="M305.909,70.592a3.236,3.236,0,0,1,.194.386,1.082,1.082,0,0,0,.547.609,1.146,1.146,0,0,0,.818.157.313.313,0,0,0,.228-.453,1.225,1.225,0,0,0-1.787-.7" transform="translate(-234.232 -53.924)" fill="#83bc3a"/>
    <path id="Path_63" data-name="Path 63" d="M301.661,57.579a1.249,1.249,0,0,0-1.633,1.041,2.8,2.8,0,0,1,.4.081.99.99,0,0,0,.79-.071,1.229,1.229,0,0,0,.628-.578.316.316,0,0,0-.19-.472" transform="translate(-229.729 -44.033)" fill="#83bc3a"/>
    <path id="Path_64" data-name="Path 64" d="M305.575,43.941a3.3,3.3,0,0,1,.163.4,1.1,1.1,0,0,0,.5.656,1.153,1.153,0,0,0,.8.23.31.31,0,0,0,.263-.431,1.235,1.235,0,0,0-1.726-.856" transform="translate(-233.977 -33.557)" fill="#83bc3a"/>
    <path id="Path_65" data-name="Path 65" d="M300.293,20.764a3.3,3.3,0,0,1,.163.4,1.1,1.1,0,0,0,.5.656,1.153,1.153,0,0,0,.8.23.31.31,0,0,0,.263-.431,1.235,1.235,0,0,0-1.726-.856" transform="translate(-229.932 -15.811)" fill="#83bc3a"/>
    <path id="Path_66" data-name="Path 66" d="M291.072,21.826a.284.284,0,0,0,.483-.028,1.375,1.375,0,0,0-.365-1.985,3.225,3.225,0,0,1-.21.377,1.159,1.159,0,0,0-.206.813,1.325,1.325,0,0,0,.3.824" transform="translate(-222.64 -15.171)" fill="#83bc3a"/>
    <path id="Path_67" data-name="Path 67" d="M268.7,28.928a1.15,1.15,0,0,0,.811.194.311.311,0,0,0,.246-.442A1.23,1.23,0,0,0,268,27.9a3.268,3.268,0,0,1,.179.394,1.091,1.091,0,0,0,.523.633" transform="translate(-205.204 -21.257)" fill="#83bc3a"/>
    <path id="Path_68" data-name="Path 68" d="M342.237,22.53a1.152,1.152,0,0,0,.8.23.31.31,0,0,0,.263-.431,1.235,1.235,0,0,0-1.726-.856,3.289,3.289,0,0,1,.163.4,1.1,1.1,0,0,0,.5.656" transform="translate(-261.543 -16.353)" fill="#83bc3a"/>
    <path id="Path_69" data-name="Path 69" d="M274.449,28.053c-.046-.036-.093-.077-.16-.036a1.431,1.431,0,0,0,.03.405,3.3,3.3,0,0,0,.075.4c.037.13.1.253.142.381s.167.2.176.358c-.087.018-.155.034-.224.045a.968.968,0,0,0-.764.642c-.041.1-.013.153.076.149a1.465,1.465,0,0,0,1.122-.448.462.462,0,0,1,.311-.127c-.07-.308-.125-.589-.2-.864a1.63,1.63,0,0,0-.588-.906" transform="translate(-209.576 -21.439)" fill="#83bc3a"/>
    <path id="Path_70" data-name="Path 70" d="M299.07,35.4c.268.09.542.161.843.25a.506.506,0,0,1,.139-.324,1.613,1.613,0,0,0,.492-1.169c.007-.094-.048-.126-.144-.087a1,1,0,0,0-.666.78c-.014.072-.033.143-.054.235-.156-.018-.229-.152-.345-.2s-.242-.124-.369-.168a3.025,3.025,0,0,0-.393-.1,1.308,1.308,0,0,0-.4-.051c-.044.069,0,.12.028.171a1.612,1.612,0,0,0,.866.665" transform="translate(-228.296 -26.076)" fill="#83bc3a"/>
    <path id="Path_71" data-name="Path 71" d="M261.559,68.1c-.094.133-.241.13-.342.209s-.224.157-.326.249a3.333,3.333,0,0,0-.281.307,1.472,1.472,0,0,0-.246.336c.033.075.095.066.153.062a1.56,1.56,0,0,0,.983-.446c.21-.2.409-.411.635-.639a.5.5,0,0,1-.19-.294,1.568,1.568,0,0,0-.691-1.049c-.073-.055-.126-.021-.145.086a1.065,1.065,0,0,0,.288,1.008c.052.049.1.1.162.171" transform="translate(-199.359 -51.153)" fill="#83bc3a"/>
    <path id="Path_72" data-name="Path 72" d="M320.158,26.064a1.05,1.05,0,0,0,.269-.295,1.5,1.5,0,0,0,.23-.861,1.137,1.137,0,0,0-.026-.25c-.09-.335-.077-.354-.4-.186a1.563,1.563,0,0,0-.6.565,1.143,1.143,0,0,0-.195.633c0,.2-.017.445.164.539s.389-.021.559-.146" transform="translate(-244.59 -18.659)" fill="#83bc3a"/>
    <path id="Path_73" data-name="Path 73" d="M320.451,42.733a3.853,3.853,0,0,0-.592.4,1.568,1.568,0,0,0-.542.935c-.025.134.009.181.143.186a1.15,1.15,0,0,0,1.069-.527,2.658,2.658,0,0,0,.409-1.274c-.2.114-.344.195-.487.277" transform="translate(-244.494 -32.508)" fill="#83bc3a"/>
    <path id="Path_74" data-name="Path 74" d="M327.38,22.915a1.64,1.64,0,0,0,0,1.1c.045.128.1.149.213.08a1.251,1.251,0,0,0,.654-1.041,2.683,2.683,0,0,0-.275-1.314c-.115.208-.2.356-.28.506a4.259,4.259,0,0,0-.308.671" transform="translate(-250.599 -16.645)" fill="#83bc3a"/>
    <path id="Path_75" data-name="Path 75" d="M352.216,70.574a1.065,1.065,0,0,0-.638.272.952.952,0,0,0,.518.563.878.878,0,0,0,.405.11,1.984,1.984,0,0,0,1.309-.449c.006,0,0-.024.005-.056a5.493,5.493,0,0,0-1.075-.4,1.367,1.367,0,0,0-.524-.035" transform="translate(-269.201 -54.028)" fill="#83bc3a"/>
    <path id="Path_76" data-name="Path 76" d="M367.191,66.7a1.357,1.357,0,0,0-.523-.035,1.063,1.063,0,0,0-.638.272.952.952,0,0,0,.518.563.877.877,0,0,0,.405.11,1.982,1.982,0,0,0,1.309-.449c.006,0,0-.024.005-.056a5.484,5.484,0,0,0-1.075-.4" transform="translate(-280.266 -51.038)" fill="#83bc3a"/>
    <path id="Path_77" data-name="Path 77" d="M363.494,70.088a1.162,1.162,0,0,0-.383-.213.855.855,0,0,0-.565-.022.833.833,0,0,0,.212.607.766.766,0,0,0,.27.227,1.609,1.609,0,0,0,1.126.127c.006,0,.009-.017.022-.041a4.831,4.831,0,0,0-.681-.685" transform="translate(-277.595 -53.456)" fill="#83bc3a"/>
    <path id="Path_78" data-name="Path 78" d="M331.76,73.029a6.239,6.239,0,0,0-.494-1.091,1.5,1.5,0,0,0-.348-.417,1.069,1.069,0,0,0-.633-.286,1.032,1.032,0,0,0-.007.786.993.993,0,0,0,.214.382,2.024,2.024,0,0,0,1.226.662c.007,0,.018-.015.041-.036" transform="translate(-252.834 -54.544)" fill="#83bc3a"/>
    <path id="Path_79" data-name="Path 79" d="M332.839,86.316a1.066,1.066,0,0,0-.633-.285,1.032,1.032,0,0,0-.007.786.988.988,0,0,0,.214.381,2.022,2.022,0,0,0,1.226.662c.007,0,.018-.015.041-.036a6.221,6.221,0,0,0-.494-1.091,1.5,1.5,0,0,0-.348-.417" transform="translate(-254.305 -65.873)" fill="#83bc3a"/>
    <path id="Path_80" data-name="Path 80" d="M344.021,73.908a1.066,1.066,0,0,0-.633-.285,1.033,1.033,0,0,0-.007.786.994.994,0,0,0,.214.382,2.022,2.022,0,0,0,1.226.662c.008,0,.018-.015.041-.036a6.221,6.221,0,0,0-.494-1.091,1.5,1.5,0,0,0-.348-.417" transform="translate(-262.867 -56.373)" fill="#83bc3a"/>
    <path id="Path_81" data-name="Path 81" d="M294.2,54.1a.864.864,0,0,0-.418-.01,2.044,2.044,0,0,0-1.18.751c-.005.006,0,.024.007.056a5.363,5.363,0,0,0,1.133.136,1.364,1.364,0,0,0,.518-.091,1.1,1.1,0,0,0,.564-.418.916.916,0,0,0-.624-.424" transform="translate(-224.04 -41.398)" fill="#83bc3a"/>
    <path id="Path_82" data-name="Path 82" d="M337.7,70.532c.008,0,.018-.015.041-.036a6.239,6.239,0,0,0-.494-1.091,1.5,1.5,0,0,0-.348-.417,1.068,1.068,0,0,0-.633-.286,1.032,1.032,0,0,0-.007.786.987.987,0,0,0,.214.382,2.024,2.024,0,0,0,1.226.662" transform="translate(-257.418 -52.605)" fill="#83bc3a"/>
    <path id="Path_83" data-name="Path 83" d="M330.409,32.832a.893.893,0,0,0,.687-.3.974.974,0,0,0,.249-.357,2.313,2.313,0,0,0,.1-1.456c0-.008-.02-.012-.047-.027a5.979,5.979,0,0,0-.759.9,1.571,1.571,0,0,0-.229.5,1.234,1.234,0,0,0,0,.73" transform="translate(-252.95 -23.504)" fill="#83bc3a"/>
    <path id="Path_84" data-name="Path 84" d="M326.973,42.487c0-.007-.022-.007-.052-.014a6.187,6.187,0,0,0-.542,1.065,1.607,1.607,0,0,0-.114.544,1.223,1.223,0,0,0,.154.712.925.925,0,0,0,.6-.455,1.012,1.012,0,0,0,.165-.408,2.309,2.309,0,0,0-.215-1.442" transform="translate(-249.819 -32.521)" fill="#83bc3a"/>
    <path id="Path_85" data-name="Path 85" d="M269.719,68.108a.221.221,0,0,0-.03-.328.807.807,0,0,0-.216-.123,1.281,1.281,0,0,0-1.55.667c.153.077.279.144.408.2a.576.576,0,0,0,.342.076,2.07,2.07,0,0,0,.889-.347.831.831,0,0,0,.158-.149" transform="translate(-205.147 -51.751)" fill="#83bc3a"/>
    <path id="Path_86" data-name="Path 86" d="M274.364,75.958a1.732,1.732,0,0,0,.857-.994.183.183,0,0,0,.008-.036.222.222,0,0,0-.158-.254.612.612,0,0,0-.315,0,1.4,1.4,0,0,0-1.03,1.067c-.059.231-.025.264.219.257h.006a.951.951,0,0,0,.413-.042" transform="translate(-209.571 -57.163)" fill="#83bc3a"/>
    <path id="Path_87" data-name="Path 87" d="M290.7,73.309a.61.61,0,0,0-.315,0,1.4,1.4,0,0,0-1.03,1.067c-.059.231-.025.264.219.257h.006a.955.955,0,0,0,.413-.042,1.732,1.732,0,0,0,.857-.994.207.207,0,0,0,.008-.036.222.222,0,0,0-.158-.254" transform="translate(-221.54 -56.117)" fill="#83bc3a"/>
    <path id="Path_88" data-name="Path 88" d="M300.2,29.337l0,0a1.007,1.007,0,0,0,.342.248,1.58,1.58,0,0,0,1.257-.18.183.183,0,0,0,.028-.022.231.231,0,0,0,.032-.3.658.658,0,0,0-.243-.213,1.291,1.291,0,0,0-1.435.119c-.184.138-.179.186.014.346" transform="translate(-229.75 -21.982)" fill="#83bc3a"/>
    <path id="Path_89" data-name="Path 89" d="M266.027,73.66a.612.612,0,0,0-.315,0,1.4,1.4,0,0,0-1.03,1.067c-.059.231-.025.264.219.257h.006a.954.954,0,0,0,.413-.042,1.733,1.733,0,0,0,.857-.994.209.209,0,0,0,.008-.036.222.222,0,0,0-.158-.254" transform="translate(-202.646 -56.386)" fill="#83bc3a"/>
    <path id="Path_90" data-name="Path 90" d="M339.529,42.126a.728.728,0,0,0,.1.536.14.14,0,0,0,.18.072.731.731,0,0,0,.445-.4,1.706,1.706,0,0,0-.016-1.566c-.216.363-.4.663-.573.973a1.6,1.6,0,0,0-.133.384" transform="translate(-259.961 -31.216)" fill="#83bc3a"/>
    <path id="Path_91" data-name="Path 91" d="M346.911,49.1c-.385.131-.71.234-1.028.355a1.431,1.431,0,0,0-.334.2.7.7,0,0,0-.25.477.153.153,0,0,0,.095.178.68.68,0,0,0,.583,0,1.6,1.6,0,0,0,.934-1.212" transform="translate(-264.39 -37.592)" fill="#83bc3a"/>
    <path id="Path_92" data-name="Path 92" d="M358.354,36.3a.153.153,0,0,0,.095.178.68.68,0,0,0,.583,0,1.6,1.6,0,0,0,.934-1.211c-.385.131-.71.234-1.028.355a1.427,1.427,0,0,0-.334.2.7.7,0,0,0-.25.477" transform="translate(-274.387 -27.001)" fill="#83bc3a"/>
    <path id="Path_93" data-name="Path 93" d="M309.845,25.59a.138.138,0,0,0,.187-.048.8.8,0,0,0,.158-.6,1.622,1.622,0,0,0-.84-1.287c.013.429.017.789.039,1.147a1.61,1.61,0,0,0,.093.4.673.673,0,0,0,.363.387" transform="translate(-236.867 -18.116)" fill="#83bc3a"/>
    <path id="Path_94" data-name="Path 94" d="M360.867,46.314a.7.7,0,0,0-.259.472.154.154,0,0,0,.091.18.68.68,0,0,0,.583.009,1.593,1.593,0,0,0,.958-1.191c-.388.123-.714.219-1.035.333a1.421,1.421,0,0,0-.338.2" transform="translate(-276.113 -35.056)" fill="#83bc3a"/>
    <path id="Path_95" data-name="Path 95" d="M335.941,39.007a.673.673,0,0,0,.363.387.138.138,0,0,0,.187-.048.8.8,0,0,0,.158-.6,1.622,1.622,0,0,0-.84-1.287c.013.429.017.789.039,1.147a1.605,1.605,0,0,0,.093.4" transform="translate(-257.127 -28.684)" fill="#83bc3a"/>
    <path id="Path_96" data-name="Path 96" d="M316.812,9.143a.957.957,0,0,0,.019.7.2.2,0,0,0,.185.146.544.544,0,0,0,.477-.217,1.4,1.4,0,0,0,.2-.366c.111-.362.2-.735.322-1.176a1.3,1.3,0,0,0-1.2.912" transform="translate(-242.537 -6.302)" fill="#83bc3a"/>
    <path id="Path_97" data-name="Path 97" d="M277.11,40.657a1.31,1.31,0,0,0-.385-.059c-.345.016-.69.053-1.1.087a1.419,1.419,0,0,0,1.272.792.737.737,0,0,0,.564-.243.176.176,0,0,0,.037-.214.628.628,0,0,0-.387-.362" transform="translate(-211.043 -31.085)" fill="#83bc3a"/>
    <path id="Path_98" data-name="Path 98" d="M320.967,61.923a1.6,1.6,0,0,0-.133.384.728.728,0,0,0,.1.536.14.14,0,0,0,.18.072.732.732,0,0,0,.445-.4,1.707,1.707,0,0,0-.017-1.566c-.216.363-.4.663-.573.973" transform="translate(-245.647 -46.669)" fill="#83bc3a"/>
    <path id="Path_99" data-name="Path 99" d="M297.778,40.154a.137.137,0,0,0,.192-.018.785.785,0,0,0,.237-.566,1.656,1.656,0,0,0-.655-1.4c-.046.427-.091.783-.119,1.141a1.63,1.63,0,0,0,.038.407.689.689,0,0,0,.307.438" transform="translate(-227.741 -29.224)" fill="#83bc3a"/>
    <path id="Path_100" data-name="Path 100" d="M287.762,30.238a.717.717,0,0,0,.179.512.138.138,0,0,0,.189.039.752.752,0,0,0,.377-.472,1.7,1.7,0,0,0-.258-1.542c-.157.4-.295.725-.415,1.06a1.617,1.617,0,0,0-.071.4" transform="translate(-220.336 -22.034)" fill="#83bc3a"/>
    <path id="Path_101" data-name="Path 101" d="M282.425,73.9a.761.761,0,0,0,.04-.478c-.014-.073-.055-.1-.113-.1a.561.561,0,0,0-.4.259,1.778,1.778,0,0,0-.3,1.345c.226-.271.418-.493.6-.727a1.571,1.571,0,0,0,.171-.3" transform="translate(-215.642 -56.143)" fill="#83bc3a"/>
    <path id="Path_102" data-name="Path 102" d="M269.454,77.009a1.778,1.778,0,0,0-.3,1.345c.226-.271.418-.493.6-.727a1.571,1.571,0,0,0,.171-.3.761.761,0,0,0,.04-.478c-.014-.072-.055-.1-.113-.1a.561.561,0,0,0-.4.259" transform="translate(-206.069 -58.766)" fill="#83bc3a"/>
    <path id="Path_103" data-name="Path 103" d="M325.823,34.784a1.522,1.522,0,0,0-.149-1.454.065.065,0,0,0-.112.021c-.122.283-.246.566-.362.851a1.157,1.157,0,0,0-.088.728c.107.433.192.37.494.163a1.154,1.154,0,0,0,.217-.31" transform="translate(-248.916 -25.502)" fill="#83bc3a"/>
    <path id="Path_104" data-name="Path 104" d="M298.03,64.789c-.045,0-.077.058-.055.1.129.28.256.561.389.838a1.073,1.073,0,0,0,.474.534c.383.188.391.077.432-.3a1.219,1.219,0,0,0-.087-.375,1.363,1.363,0,0,0-1.153-.8" transform="translate(-228.152 -49.608)" fill="#83bc3a"/>
    <path id="Path_105" data-name="Path 105" d="M290.281,62.833c.117.2.21.373.316.536a3.289,3.289,0,0,0,.423.547.558.558,0,0,0,.268.169.227.227,0,0,0,.282-.241.9.9,0,0,0-.052-.253,1.1,1.1,0,0,0-1.237-.759" transform="translate(-222.266 -48.107)" fill="#83bc3a"/>
    <path id="Path_106" data-name="Path 106" d="M283.23,62.473c.117.2.21.373.316.536a3.275,3.275,0,0,0,.423.547.558.558,0,0,0,.268.169.227.227,0,0,0,.282-.241.9.9,0,0,0-.052-.253,1.1,1.1,0,0,0-1.237-.759" transform="translate(-216.867 -47.831)" fill="#83bc3a"/>
    <path id="Path_107" data-name="Path 107" d="M345.214,37.61a3.486,3.486,0,0,0-.184.681.636.636,0,0,0,.021.331.218.218,0,0,0,.347.109.844.844,0,0,0,.167-.189,1.234,1.234,0,0,0-.115-1.512c-.089.216-.17.4-.236.58" transform="translate(-264.178 -28.354)" fill="#83bc3a"/>
    <path id="Path_108" data-name="Path 108" d="M309.93,7.865a.59.59,0,0,0,.211.244.22.22,0,0,0,.335-.144.91.91,0,0,0,.019-.258,1.153,1.153,0,0,0-.979-1.1c.058.228.1.421.157.61a3.43,3.43,0,0,0,.257.654" transform="translate(-236.994 -5.055)" fill="#83bc3a"/>
    <path id="Path_109" data-name="Path 109" d="M343.571,69.166c-.166-.157-.3-.294-.446-.418a3.126,3.126,0,0,0-.553-.4.539.539,0,0,0-.3-.081.235.235,0,0,0-.205.316.878.878,0,0,0,.118.227,1.071,1.071,0,0,0,1.389.353" transform="translate(-261.906 -52.273)" fill="#83bc3a"/>
    <path id="Path_110" data-name="Path 110" d="M325.308,83.328a.533.533,0,0,0-.312,0,.241.241,0,0,0-.127.36.845.845,0,0,0,.166.19,1.061,1.061,0,0,0,1.429-.017c-.2-.109-.36-.207-.529-.29a3,3,0,0,0-.627-.242" transform="translate(-248.721 -63.785)" fill="#83bc3a"/>
    <path id="Path_111" data-name="Path 111" d="M359.764,53.5a.778.778,0,0,0,.23-.087,1.206,1.206,0,0,0,.548-1.4c-.172.149-.321.269-.459.4a3.247,3.247,0,0,0-.456.517.622.622,0,0,0-.123.3.229.229,0,0,0,.262.265" transform="translate(-275.268 -39.823)" fill="#83bc3a"/>
    <path id="Path_112" data-name="Path 112" d="M280.37,18.623a.216.216,0,0,0,.36-.035.9.9,0,0,0,.089-.241,1.2,1.2,0,0,0-.635-1.359c-.007.236-.02.434-.016.631a3.506,3.506,0,0,0,.067.7.614.614,0,0,0,.135.3" transform="translate(-214.522 -13.008)" fill="#83bc3a"/>
    <path id="Path_113" data-name="Path 113" d="M338.833,77.241a.542.542,0,0,0-.3-.1.234.234,0,0,0-.22.3.887.887,0,0,0,.107.233,1.075,1.075,0,0,0,1.371.426c-.159-.165-.287-.31-.426-.441a3.149,3.149,0,0,0-.533-.426" transform="translate(-259.037 -59.068)" fill="#83bc3a"/>
    <path id="Path_114" data-name="Path 114" d="M334.2,80.61a.543.543,0,0,0-.3-.1.234.234,0,0,0-.22.3.887.887,0,0,0,.107.233,1.075,1.075,0,0,0,1.371.426c-.159-.165-.287-.31-.426-.441a3.16,3.16,0,0,0-.533-.426" transform="translate(-255.491 -61.648)" fill="#83bc3a"/>
    <path id="Path_115" data-name="Path 115" d="M269.818,53.936a3.4,3.4,0,0,0,.3.633.579.579,0,0,0,.227.228.221.221,0,0,0,.325-.169.913.913,0,0,0,0-.259,1.141,1.141,0,0,0-1.051-1.028c.073.223.128.413.2.6" transform="translate(-206.447 -40.842)" fill="#83bc3a"/>
    <path id="Path_116" data-name="Path 116" d="M279.085,55.03a.8.8,0,0,0,.21.132.224.224,0,0,0,.3-.209.629.629,0,0,0-.067-.324,3.341,3.341,0,0,0-.357-.6c-.112-.158-.238-.305-.38-.486a1.226,1.226,0,0,0,.29,1.485" transform="translate(-213.376 -40.999)" fill="#83bc3a"/>
    <path id="Path_117" data-name="Path 117" d="M286.53,17.729a.217.217,0,0,0,.348-.1.635.635,0,0,0,.026-.33,3.458,3.458,0,0,0-.173-.684c-.063-.186-.141-.366-.226-.584a1.233,1.233,0,0,0-.14,1.51.846.846,0,0,0,.164.192" transform="translate(-219.118 -12.272)" fill="#83bc3a"/>
    <path id="Path_118" data-name="Path 118" d="M273.2,44.886a.779.779,0,0,0,.232-.079.245.245,0,0,0,.055-.38.56.56,0,0,0-.272-.162,2.955,2.955,0,0,0-.658-.115c-.186-.015-.373-.014-.595-.021a1.1,1.1,0,0,0,1.238.757" transform="translate(-208.236 -33.789)" fill="#83bc3a"/>
    <path id="Path_119" data-name="Path 119" d="M284.852,58.243a.59.59,0,0,0-.21-.245,3.062,3.062,0,0,0-.59-.331c-.171-.077-.349-.139-.558-.221a1.155,1.155,0,0,0,.948,1.135.768.768,0,0,0,.244,0,.239.239,0,0,0,.166-.341" transform="translate(-217.069 -43.987)" fill="#83bc3a"/>
    <path id="Path_120" data-name="Path 120" d="M257.905,70.337a.778.778,0,0,0,.232-.079.245.245,0,0,0,.055-.38.559.559,0,0,0-.272-.162,2.952,2.952,0,0,0-.658-.115c-.186-.015-.373-.014-.595-.021a1.1,1.1,0,0,0,1.238.757" transform="translate(-196.528 -53.277)" fill="#83bc3a"/>
    <path id="Path_121" data-name="Path 121" d="M299.689,82.091a3.032,3.032,0,0,0,.592-.327.583.583,0,0,0,.212-.244.239.239,0,0,0-.164-.342.769.769,0,0,0-.244,0,1.153,1.153,0,0,0-.955,1.128c.209-.08.387-.141.559-.217" transform="translate(-229.042 -62.151)" fill="#83bc3a"/>
    <path id="Path_122" data-name="Path 122" d="M284.668,25.726a.215.215,0,0,0,.361.016.877.877,0,0,0,.118-.227,1.217,1.217,0,0,0-.46-1.436c-.036.233-.074.427-.095.624a3.5,3.5,0,0,0-.021.708.624.624,0,0,0,.1.315" transform="translate(-217.886 -18.437)" fill="#83bc3a"/>
    <path id="Path_123" data-name="Path 123" d="M274.827,21.909a.569.569,0,0,0,.252.2.224.224,0,0,0,.3-.212.907.907,0,0,0-.029-.257,1.119,1.119,0,0,0-1.165-.878c.1.211.176.392.267.565a3.34,3.34,0,0,0,.374.587" transform="translate(-209.943 -15.893)" fill="#83bc3a"/>
    <path id="Path_124" data-name="Path 124" d="M256.484,114.354a1.72,1.72,0,1,0,.317,1,1.726,1.726,0,0,0-.317-1" transform="translate(-193.981 -86.998)" fill="#fff"/>
  </g>
</svg>
