<svg xmlns="http://www.w3.org/2000/svg" xmlns:xlink="http://www.w3.org/1999/xlink" width="1279.973" height="308.915" viewBox="0 0 1279.973 308.915"><defs><linearGradient id="a" y1="0.5" x2="1" y2="0.5" gradientUnits="objectBoundingBox"><stop offset="0" stop-color="#0a2127"/><stop offset="0.47" stop-color="#27b9d9"/><stop offset="0.97" stop-color="#0a2127"/></linearGradient><linearGradient id="b" x1="0" y1="0.5" x2="1" y2="0.5" xlink:href="#a"/></defs><g transform="translate(-0.003 -0.001)"><path d="M233.65,282.09C304.11,222.37,342.32,74.76,356.71,8.45c1.46-6.75-8.63-11.81-11.93-5.71C287.43,108.82,204,253.12,110.83,253.88c-5.92.05-7.63,8.2-3,11.76q9.36,7.2,19.46,13.9c55,36.51,52.4,40.82,106.35,2.55" fill-rule="evenodd" fill="url(#a)"/><path d="M351.4,3.83h0c-46,53.48-187.13,145.23-312.53,136.68a11.27,11.27,0,0,0-11.25,15.18,271.187,271.187,0,0,0,23,46.52,10.83,10.83,0,0,0,8.87,5.15c106.9,2.61,271-125,293.57-204.93" fill-rule="evenodd" fill="url(#b)"/><path d="M346.93.8h0c-47.87,46.12-204.18,49.66-336,15.51h-.08A8.15,8.15,0,0,0,.44,23.39C-.51,36.12.09,53,2.22,75.25c.11,1.15.23,2.3.35,3.45A8.16,8.16,0,0,0,10,86C121.7,94.42,317.54,79.63,346.93.8" fill-rule="evenodd" fill="url(#a)"/><path d="M577.62,213.62l1-126.07h-.75l-46.3,126.07H501.38l-45-126.07h-.76l1,126.07H416.07V35.46H477.3L517.86,149.7h1l38.8-114.24H619.9V213.62Z" fill="#1d1d1b"/><path d="M656.38,213.62V35.46H776.16V71.69H697.9v33.72h74v34.48h-74v37h82.79v36.74Z" fill="#1d1d1b"/><path d="M809.12,213.62V35.46h43.29V213.62Z" fill="#1d1d1b"/><path d="M1055.47,124q0,23.41-8.68,40.39a81.18,81.18,0,0,1-22.9,27.93,95.46,95.46,0,0,1-32.08,16.11,130,130,0,0,1-36.24,5.16H889.14V35.46h64.42a159.461,159.461,0,0,1,37.24,4.4,93.52,93.52,0,0,1,32.72,14.6,74.752,74.752,0,0,1,23.15,27.3Q1055.47,98.88,1055.47,124Zm-44.79,0q0-15.09-4.9-25a42.232,42.232,0,0,0-13.09-15.86,52.421,52.421,0,0,0-18.62-8.43,91.869,91.869,0,0,0-21.51-2.51H931.17V176.37h20.38a92.641,92.641,0,0,0,22.27-2.64,52.519,52.519,0,0,0,18.87-8.68,43,43,0,0,0,13.09-16.1Q1010.69,138.89,1010.68,124Z" fill="#1d1d1b"/><path d="M1083.91,213.62V35.46h119.77V71.69h-78.25v33.72h74v34.48h-74v37h82.78v36.74Z" fill="#1d1d1b"/><path d="M1236.65,213.62V35.46h43.28V213.62Z" fill="#1d1d1b"/><path d="M420,272.48h-4v-28.3h9.08a17.26,17.26,0,0,1,3.87.42,9.64,9.64,0,0,1,3.22,1.34,6.6,6.6,0,0,1,2.18,2.42,7.73,7.73,0,0,1,.8,3.66,6.81,6.81,0,0,1-1.92,5,8.94,8.94,0,0,1-5,2.43l7.92,13h-4.8l-7.19-12.59H420Zm0-15.9h4.56a13.288,13.288,0,0,0,2.6-.24,6.57,6.57,0,0,0,2.09-.78,4.34,4.34,0,0,0,1.42-5.68,4,4,0,0,0-1.38-1.38,6.189,6.189,0,0,0-2-.74,13.548,13.548,0,0,0-2.43-.22H420Z" fill="#1d1d1b"/><path d="M444.57,269h14.79v3.51H440.62v-28.3h18.14v3.48H444.57v8.48h13.35v3.39H444.57Z" fill="#1d1d1b"/><path d="M478.71,249.42a6.41,6.41,0,0,0-2.28-1.9,7,7,0,0,0-3.24-.74,7.73,7.73,0,0,0-1.94.26,5.711,5.711,0,0,0-1.78.84,4.68,4.68,0,0,0-1.29,1.44,4,4,0,0,0-.5,2.06,3.74,3.74,0,0,0,.46,1.94,4,4,0,0,0,1.24,1.32,8,8,0,0,0,1.83.92l2.26.78c1,.29,1.93.62,2.92,1a10.37,10.37,0,0,1,2.68,1.47,7.409,7.409,0,0,1,2,2.3,7.279,7.279,0,0,1,.76,3.5,8.44,8.44,0,0,1-.82,3.82,7.84,7.84,0,0,1-2.18,2.67,9.11,9.11,0,0,1-3.14,1.58,12.9,12.9,0,0,1-3.66.52,13.191,13.191,0,0,1-5.17-1,10.19,10.19,0,0,1-4.14-3.07l3.08-2.6a7.61,7.61,0,0,0,2.68,2.4,7.45,7.45,0,0,0,3.63.92,7.6,7.6,0,0,0,2-.28,5.69,5.69,0,0,0,1.82-.88,4.83,4.83,0,0,0,1.34-1.5,4.26,4.26,0,0,0,.52-2.18,4,4,0,0,0-.54-2.14,4.84,4.84,0,0,0-1.46-1.46,9.661,9.661,0,0,0-2.14-1c-.81-.28-1.67-.56-2.58-.86a20.939,20.939,0,0,1-2.67-1A9.06,9.06,0,0,1,466,257a6.52,6.52,0,0,1-1.68-2.21,7.46,7.46,0,0,1-.64-3.28,7.34,7.34,0,0,1,.86-3.64,7.86,7.86,0,0,1,2.24-2.52,9.569,9.569,0,0,1,3.11-1.46,14,14,0,0,1,3.5-.45,12.31,12.31,0,0,1,4.64.87,9.35,9.35,0,0,1,3.48,2.36Z" fill="#1d1d1b"/><path d="M487.38,244.18H496a17.84,17.84,0,0,1,4.16.46,9.11,9.11,0,0,1,3.2,1.42,6.44,6.44,0,0,1,2,2.44,8.07,8.07,0,0,1,.72,3.56,7.909,7.909,0,0,1-.78,3.64,6.61,6.61,0,0,1-2.16,2.47,9.51,9.51,0,0,1-3.28,1.42,17.16,17.16,0,0,1-4.1.46h-4.47v12.43h-4Zm4,12.51h4.19a13,13,0,0,0,2.66-.25,6.76,6.76,0,0,0,2.1-.8,3.78,3.78,0,0,0,1.36-1.42,4.48,4.48,0,0,0,.48-2.16,4.23,4.23,0,0,0-.5-2.14,4,4,0,0,0-1.36-1.4,5.85,5.85,0,0,0-2.06-.76,15,15,0,0,0-2.6-.22h-4.27Z" fill="#1d1d1b"/><path d="M522,273.2a11.66,11.66,0,0,1-4.87-.94,9.779,9.779,0,0,1-3.44-2.49,10.22,10.22,0,0,1-2-3.58A13.389,13.389,0,0,1,511,262V244.18h4v17.59a11.616,11.616,0,0,0,.36,2.86,7.221,7.221,0,0,0,1.18,2.54,6,6,0,0,0,2.16,1.8,8.47,8.47,0,0,0,6.65,0,6.061,6.061,0,0,0,2.18-1.8,7.22,7.22,0,0,0,1.18-2.54,11.622,11.622,0,0,0,.36-2.86V244.18h4V262a13.391,13.391,0,0,1-.66,4.18,10.38,10.38,0,0,1-2,3.58,9.78,9.78,0,0,1-3.44,2.49A11.71,11.71,0,0,1,522,273.2Z" fill="#1d1d1b"/><path d="M543.58,269h14.79v3.51H539.62v-28.3h18.15v3.48H543.58v8.48h13.35v3.39H543.58Z" fill="#1d1d1b"/><path d="M577.71,249.42a6.47,6.47,0,0,0-2.27-1.9,7,7,0,0,0-3.24-.74,7.671,7.671,0,0,0-1.94.26,5.61,5.61,0,0,0-1.78.84,4.71,4.71,0,0,0-1.3,1.44,4.061,4.061,0,0,0-.5,2.06,3.74,3.74,0,0,0,.46,1.94,4.211,4.211,0,0,0,1.24,1.32,8.1,8.1,0,0,0,1.84.92l2.26.78c1,.29,1.93.62,2.92,1a10.479,10.479,0,0,1,2.67,1.47,7.281,7.281,0,0,1,2,2.3,7.169,7.169,0,0,1,.76,3.5,8.31,8.31,0,0,1-.82,3.82,7.61,7.61,0,0,1-2.18,2.67,9.06,9.06,0,0,1-3.13,1.58,12.9,12.9,0,0,1-3.66.52,13.24,13.24,0,0,1-5.18-1,10.22,10.22,0,0,1-4.13-3.07l3.07-2.6a7.69,7.69,0,0,0,2.68,2.4,7.48,7.48,0,0,0,3.64.92,7.722,7.722,0,0,0,2-.28,5.791,5.791,0,0,0,1.82-.88,5,5,0,0,0,1.34-1.5,4.369,4.369,0,0,0,.51-2.18,4,4,0,0,0-.53-2.14,4.84,4.84,0,0,0-1.46-1.46,9.88,9.88,0,0,0-2.14-1l-2.58-.86a20.529,20.529,0,0,1-2.68-1A9.219,9.219,0,0,1,565,257a6.791,6.791,0,0,1-1.68-2.21,7.609,7.609,0,0,1-.63-3.28,7.339,7.339,0,0,1,.85-3.64,8,8,0,0,1,2.24-2.52,9.52,9.52,0,0,1,3.12-1.46,14,14,0,0,1,3.5-.45,12.231,12.231,0,0,1,4.63.87,9.35,9.35,0,0,1,3.48,2.36Z" fill="#1d1d1b"/><path d="M595.66,272.48h-4V247.66h-9.07v-3.48h22.1v3.48h-9.07Z" fill="#1d1d1b"/><path d="M607.25,272.48h-4.39l12.27-28.3h3.59l12.16,28.3H626.4l-2.88-7H610.09Zm4.24-10.43h10.59l-5.27-13.27Z" fill="#1d1d1b"/><path d="M643.78,244.18h8.64a17.751,17.751,0,0,1,4.15.46,9,9,0,0,1,3.2,1.42,6.44,6.44,0,0,1,2,2.44,8.07,8.07,0,0,1,.72,3.56,7.91,7.91,0,0,1-.78,3.64,6.61,6.61,0,0,1-2.16,2.47,9.509,9.509,0,0,1-3.28,1.42,17.14,17.14,0,0,1-4.09.46H647.7v12.43h-4Zm4,12.51h4.2a13.069,13.069,0,0,0,2.66-.25,6.86,6.86,0,0,0,2.1-.8,3.83,3.83,0,0,0,1.35-1.42,4.48,4.48,0,0,0,.48-2.16,4.13,4.13,0,0,0-.5-2.14,4,4,0,0,0-1.36-1.4,5.791,5.791,0,0,0-2-.76,15.091,15.091,0,0,0-2.6-.22h-4.28Z" fill="#1d1d1b"/><path d="M671.52,272.48h-3.95v-28.3h9.07a17.41,17.41,0,0,1,3.88.42,9.67,9.67,0,0,1,3.21,1.34,6.6,6.6,0,0,1,2.18,2.42,7.732,7.732,0,0,1,.8,3.66,6.81,6.81,0,0,1-1.92,5,8.94,8.94,0,0,1-4.95,2.43l7.91,13H683l-7.19-12.59h-4.24Zm0-15.9h4.56a13.29,13.29,0,0,0,2.6-.24,6.54,6.54,0,0,0,2.1-.78,4,4,0,0,0,1.41-1.4,4.66,4.66,0,0,0,0-4.28,4,4,0,0,0-1.37-1.38,6.361,6.361,0,0,0-2-.74,13.748,13.748,0,0,0-2.44-.22h-4.84Z" fill="#1d1d1b"/><path d="M696.07,272.48h-4v-28.3h4Z" fill="#1d1d1b"/><path d="M712.33,267.37h.12L721,244.18h4.27l-11.11,28.3h-3.67l-11-28.3h4.4Z" fill="#1d1d1b"/><path d="M728.56,272.48h-4.39l12.27-28.3H740l12.15,28.3h-4.48l-2.88-7H731.4Zm4.24-10.43h10.59l-5.27-13.27Z" fill="#1d1d1b"/><path d="M755.82,244.18h9.72a19.251,19.251,0,0,1,5.43.8,14.821,14.821,0,0,1,4.92,2.52,12.9,12.9,0,0,1,3.56,4.4,14.13,14.13,0,0,1,1.36,6.43,13.738,13.738,0,0,1-1.36,6.3,13.19,13.19,0,0,1-3.56,4.4,15.389,15.389,0,0,1-4.92,2.6,18,18,0,0,1-5.43.85h-9.72Zm4,24.83h5a15,15,0,0,0,4.73-.72,10.809,10.809,0,0,0,3.76-2.08,9.45,9.45,0,0,0,2.46-3.36,11,11,0,0,0,.88-4.52,11.348,11.348,0,0,0-.88-4.63,9.2,9.2,0,0,0-2.46-3.34,10.9,10.9,0,0,0-3.76-2,15.279,15.279,0,0,0-4.73-.7h-5Z" fill="#1d1d1b"/><path d="M786.44,272.48h-4.39l12.27-28.3h3.6l12.15,28.3h-4.48l-2.88-7H789.28Zm4.24-10.43h10.59L796,248.78Z" fill="#1d1d1b"/><path d="M847.24,268.09a12.58,12.58,0,0,1-4.36,3.69,13.51,13.51,0,0,1-6.43,1.42,16,16,0,0,1-6-1.09,13.83,13.83,0,0,1-7.81-7.8,16.68,16.68,0,0,1,0-12.07,13.681,13.681,0,0,1,3.16-4.68,14.321,14.321,0,0,1,4.77-3,16.87,16.87,0,0,1,8.92-.8,14.909,14.909,0,0,1,2.83.84,12.111,12.111,0,0,1,2.48,1.38,8.879,8.879,0,0,1,1.92,1.9l-3.12,2.4a7.82,7.82,0,0,0-2.93-2.38,9.24,9.24,0,0,0-4.1-.94,10.67,10.67,0,0,0-4.46.9,10.159,10.159,0,0,0-3.38,2.46,11.078,11.078,0,0,0-2.15,3.62,12.451,12.451,0,0,0-.76,4.38,13.061,13.061,0,0,0,.74,4.47,10.69,10.69,0,0,0,2.11,3.62,9.921,9.921,0,0,0,3.36,2.42,10.86,10.86,0,0,0,4.42.88,9.789,9.789,0,0,0,4.36-1,8.45,8.45,0,0,0,3.23-2.8Z" fill="#1d1d1b"/><path d="M879.34,258.3a15.511,15.511,0,0,1-1.14,6,14,14,0,0,1-7.89,7.8,17,17,0,0,1-12,0,14.229,14.229,0,0,1-4.71-3.1,13.789,13.789,0,0,1-3.12-4.72,16.82,16.82,0,0,1,0-12.07,13.439,13.439,0,0,1,3.12-4.68,14.239,14.239,0,0,1,4.73-3,17.3,17.3,0,0,1,12,0,14.228,14.228,0,0,1,4.75,3,13.91,13.91,0,0,1,3.14,4.68A15.581,15.581,0,0,1,879.34,258.3Zm-4.28,0a12.449,12.449,0,0,0-.76-4.38,11.1,11.1,0,0,0-2.16-3.62,10.06,10.06,0,0,0-3.38-2.46,11.38,11.38,0,0,0-8.87,0,9.89,9.89,0,0,0-3.36,2.46,11.39,11.39,0,0,0-2.13,3.62,12.451,12.451,0,0,0-.76,4.38,12.691,12.691,0,0,0,.76,4.43,10.779,10.779,0,0,0,2.15,3.62,10.319,10.319,0,0,0,3.36,2.42,10.73,10.73,0,0,0,4.4.88,11.06,11.06,0,0,0,4.44-.88,10,10,0,0,0,3.39-2.42,10.8,10.8,0,0,0,2.16-3.62,12.691,12.691,0,0,0,.76-4.43Z" fill="#1d1d1b"/><path d="M904.68,266.81h.08V244.18h4v28.3h-5l-15-23.1h-.08v23.1h-4v-28.3h5.16Z" fill="#1d1d1b"/><path d="M925.5,272.48h-4V247.66h-9.08v-3.48h22.11v3.48H925.5Z" fill="#1d1d1b"/><path d="M942.29,272.48h-4v-28.3h9.08a17.26,17.26,0,0,1,3.87.42,9.64,9.64,0,0,1,3.22,1.34,6.6,6.6,0,0,1,2.18,2.42,7.729,7.729,0,0,1,.8,3.66,6.81,6.81,0,0,1-1.92,5,8.94,8.94,0,0,1-5,2.43l7.92,13h-4.8l-7.19-12.59h-4.24Zm0-15.9h4.56a13.287,13.287,0,0,0,2.6-.24,6.57,6.57,0,0,0,2.09-.78,4.34,4.34,0,0,0,1.42-5.68,4,4,0,0,0-1.38-1.38,6.188,6.188,0,0,0-2-.74,13.551,13.551,0,0,0-2.43-.22h-4.84Z" fill="#1d1d1b"/><path d="M964,272.48h-4.4l12.27-28.3h3.6l12.15,28.3h-4.48l-2.88-7H966.87Zm4.23-10.43h10.59l-5.27-13.27Z" fill="#1d1d1b"/><path d="M1004.53,269h14.79v3.51h-18.75v-28.3h18.15v3.48h-14.19v8.48h13.35v3.39h-13.35Z" fill="#1d1d1b"/><path d="M1039.22,265.93h.08l8.36-21.75h6.15v28.3h-4V248.82h-.09l-9.39,23.66h-2.52l-9.35-23.66h-.08v23.66h-3.84v-28.3h6.16Z" fill="#1d1d1b"/><path d="M1064.64,269h14.79v3.51h-18.74v-28.3h18.14v3.48h-14.19v8.48H1078v3.39h-13.35Z" fill="#1d1d1b"/><path d="M1088.67,272.48h-4v-28.3h9.07a17.409,17.409,0,0,1,3.88.42,9.64,9.64,0,0,1,3.22,1.34,6.691,6.691,0,0,1,2.18,2.42,7.729,7.729,0,0,1,.79,3.66,6.81,6.81,0,0,1-1.91,5,9,9,0,0,1-5,2.43l7.91,13h-4.79l-7.2-12.59h-4.23Zm0-15.9h4.55a13.21,13.21,0,0,0,2.6-.24,6.54,6.54,0,0,0,2.1-.78,4.12,4.12,0,0,0,0-7.06,6.281,6.281,0,0,0-2-.74,13.669,13.669,0,0,0-2.44-.22h-4.83Z" fill="#1d1d1b"/><path d="M1130.6,250a9.319,9.319,0,0,0-3.26-2.24,11.2,11.2,0,0,0-4.42-.84,10.751,10.751,0,0,0-4.47.9,10,10,0,0,0-3.4,2.46,11.1,11.1,0,0,0-2.16,3.62,12.448,12.448,0,0,0-.76,4.38,12.689,12.689,0,0,0,.76,4.43,10.8,10.8,0,0,0,2.16,3.62,10,10,0,0,0,3.44,2.42,11.429,11.429,0,0,0,4.55.88,17.6,17.6,0,0,0,3.68-.36,10.879,10.879,0,0,0,2.92-1v-7.88h-6.28V257h10.2v13.71a20.762,20.762,0,0,1-4.88,1.83,24.249,24.249,0,0,1-5.76.64,16.451,16.451,0,0,1-6.09-1.09,13.79,13.79,0,0,1-7.9-7.8,15.881,15.881,0,0,1-1.12-6,15.579,15.579,0,0,1,1.14-6.06,13.681,13.681,0,0,1,3.16-4.68,14.47,14.47,0,0,1,4.78-3,16.27,16.27,0,0,1,6-1.07,17.269,17.269,0,0,1,6.06,1,13,13,0,0,1,4.42,2.68Z" fill="#1d1d1b"/><path d="M1144.31,269h14.79v3.51h-18.75v-28.3h18.15v3.48h-14.19v8.48h13.35v3.39h-13.35Z" fill="#1d1d1b"/><path d="M1184.32,266.81h.08V244.18h3.95v28.3h-5l-14.95-23.1h-.08v23.1h-4v-28.3h5.16Z" fill="#1d1d1b"/><path d="M1219.49,268.09a12.579,12.579,0,0,1-4.36,3.69,13.508,13.508,0,0,1-6.43,1.42,16,16,0,0,1-6-1.09,13.83,13.83,0,0,1-7.81-7.8,16.679,16.679,0,0,1,0-12.07,13.68,13.68,0,0,1,3.16-4.68,14.321,14.321,0,0,1,4.77-3,16.87,16.87,0,0,1,8.92-.8,15.227,15.227,0,0,1,2.84.84,12.286,12.286,0,0,1,2.47,1.38,8.882,8.882,0,0,1,1.92,1.9l-3.12,2.4a7.819,7.819,0,0,0-2.93-2.38,9.241,9.241,0,0,0-4.1-.94,10.67,10.67,0,0,0-4.46.9,10.16,10.16,0,0,0-3.38,2.46,11.077,11.077,0,0,0-2.15,3.62,12.448,12.448,0,0,0-.76,4.38,13.063,13.063,0,0,0,.74,4.47,10.847,10.847,0,0,0,2.11,3.62,9.919,9.919,0,0,0,3.36,2.42,10.859,10.859,0,0,0,4.42.88,9.789,9.789,0,0,0,4.36-1,8.45,8.45,0,0,0,3.23-2.8Z" fill="#1d1d1b"/><path d="M1227.49,272.48h-4v-28.3h4Z" fill="#1d1d1b"/><path d="M1235.52,272.48h-4.4l12.28-28.3h3.6l12.15,28.3h-4.47l-2.88-7h-13.43Zm4.24-10.43h10.59l-5.28-13.27Z" fill="#1d1d1b"/><path d="M1276.85,249.42a6.409,6.409,0,0,0-2.28-1.9,7,7,0,0,0-3.23-.74,7.669,7.669,0,0,0-1.94.26,5.512,5.512,0,0,0-1.78.84,4.591,4.591,0,0,0-1.3,1.44,4,4,0,0,0-.5,2.06,3.74,3.74,0,0,0,.46,1.94,4.1,4.1,0,0,0,1.24,1.32,8.1,8.1,0,0,0,1.84.92l2.26.78c1,.29,1.93.62,2.91,1a10.369,10.369,0,0,1,2.68,1.47,7.41,7.41,0,0,1,2,2.3,7.173,7.173,0,0,1,.76,3.5,8.31,8.31,0,0,1-.82,3.82,7.72,7.72,0,0,1-2.18,2.67,9.112,9.112,0,0,1-3.14,1.58,12.779,12.779,0,0,1-3.65.52,13.239,13.239,0,0,1-5.18-1,10.25,10.25,0,0,1-4.14-3.07l3.08-2.6a7.69,7.69,0,0,0,2.68,2.4,7.479,7.479,0,0,0,3.64.92,7.592,7.592,0,0,0,2-.28,5.591,5.591,0,0,0,1.82-.88,4.711,4.711,0,0,0,1.34-1.5,4.259,4.259,0,0,0,.52-2.18,4,4,0,0,0-.54-2.14,4.733,4.733,0,0,0-1.46-1.46,9.57,9.57,0,0,0-2.13-1l-2.58-.86a20.533,20.533,0,0,1-2.68-1,9.061,9.061,0,0,1-2.36-1.48,6.789,6.789,0,0,1-1.68-2.21,7.611,7.611,0,0,1-.64-3.28,7.34,7.34,0,0,1,.86-3.64,7.859,7.859,0,0,1,2.24-2.52,9.521,9.521,0,0,1,3.12-1.46,13.888,13.888,0,0,1,3.5-.45,12.26,12.26,0,0,1,4.63.87,9.349,9.349,0,0,1,3.48,2.36Z" fill="#1d1d1b"/></g></svg>